<?xml version="1.0" standalone="no"?>
<!DOCTYPE svg PUBLIC "-//W3C//DTD SVG 20010904//EN"
 "http://www.w3.org/TR/2001/REC-SVG-20010904/DTD/svg10.dtd">
<svg version="1.0" xmlns="http://www.w3.org/2000/svg"
 width="573.000000pt" height="961.000000pt" viewBox="0 0 573.000000 961.000000"
 preserveAspectRatio="xMidYMid meet">

<g transform="translate(0.000000,961.000000) scale(0.100000,-0.100000)"
fill="#000000" stroke="none">
<path d="M1290 8223 c0 -110 -28 -450 -110 -1328 -126 -1344 -136 -1452 -295
-3165 -64 -690 -119 -1262 -122 -1270 -3 -8 -5 -28 -4 -45 0 -16 -41 -478 -93
-1025 -51 -547 -92 -998 -89 -1002 2 -4 299 -8 660 -8 437 0 660 -4 669 -11
16 -13 21 -4 29 56 4 28 12 61 18 75 5 14 9 34 8 45 -1 11 109 691 244 1510
135 820 248 1504 250 1521 3 17 90 552 195 1190 187 1143 210 1261 273 1432
34 91 52 71 106 -123 23 -83 198 -1097 246 -1430 7 -47 158 -968 425 -2585
133 -806 242 -1484 243 -1507 0 -24 3 -43 7 -43 3 0 11 -32 17 -71 11 -70 22
-95 30 -71 4 9 147 12 669 12 660 0 664 0 664 20 0 11 -41 454 -90 985 -50
530 -92 990 -95 1022 -2 32 -123 1331 -269 2888 -178 1892 -266 2871 -266
2953 l0 122 -1660 0 -1660 0 0 -147z m1650 7 l0 -110 -810 0 -810 0 0 110 0
110 810 0 810 0 0 -110z m1650 0 l0 -110 -810 0 -810 0 0 110 0 110 810 0 810
0 0 -110z m-2584 -157 c-3 -10 -14 -72 -26 -138 -143 -811 -209 -967 -428
-1014 -29 -6 -118 -11 -197 -11 -131 0 -145 2 -145 18 0 27 102 1136 106 1150
3 9 81 12 349 12 325 0 346 -1 341 -17z m1869 -5 c2 -13 27 -145 55 -295 90
-488 150 -680 244 -781 80 -85 175 -111 403 -112 l122 0 5 -32 c11 -64 109
-1168 105 -1172 -2 -2 -335 -216 -739 -476 -404 -260 -743 -480 -753 -488 -9
-8 -19 -13 -22 -10 -3 3 -50 281 -105 619 -55 338 -107 646 -116 684 -26 113
-73 252 -89 265 -13 11 -15 128 -15 916 l0 904 450 0 450 0 5 -22z m715 14 c0
-14 99 -1076 105 -1124 l6 -48 -154 0 c-235 0 -315 29 -388 140 -49 76 -82
162 -123 331 -29 120 -105 503 -131 667 l-7 42 346 0 c190 0 346 -3 346 -8z
m-2410 -6022 c-132 -800 -242 -1470 -245 -1488 l-6 -32 -660 0 -660 0 6 48 c3
26 44 454 90 951 46 497 86 906 89 908 11 11 1620 1072 1623 1070 1 -2 -106
-657 -237 -1457z m-260 -1569 c0 -10 -3 -33 -6 -50 l-6 -31 -654 0 c-633 0
-654 1 -654 19 0 10 3 33 6 50 l7 31 653 0 c633 0 654 -1 654 -19z m3382 -31
l3 -50 -653 0 c-513 0 -653 3 -657 13 -2 6 -6 29 -10 50 l-6 37 660 0 659 0 4
-50z"/>
</g>
</svg>
